<svg width="24" height="24" viewBox="0 0 24 24" fill="none" xmlns="http://www.w3.org/2000/svg">
<path fill-rule="evenodd" clip-rule="evenodd" d="M14.597 13.8667C13.5725 14.8743 12.5698 15.8604 12 17C11.4302 15.8604 10.4275 14.8743 9.40301 13.8667C7.73054 12.2219 6 10.52 6 8C6 4.68629 8.68629 2 12 2C15.3137 2 18 4.68629 18 8C18 10.52 16.2695 12.2219 14.597 13.8667ZM14.5 8.5C14.5 9.88071 13.3807 11 12 11C10.6193 11 9.5 9.88071 9.5 8.5C9.5 7.11929 10.6193 6 12 6C13.3807 6 14.5 7.11929 14.5 8.5Z" fill="#1E1E1E"/>
<path d="M12 17L11.3292 17.3354C11.4562 17.5895 11.7159 17.75 12 17.75C12.2841 17.75 12.5438 17.5895 12.6708 17.3354L12 17ZM14.597 13.8667L15.1229 14.4015L14.597 13.8667ZM9.40301 13.8667L8.87712 14.4015L9.40301 13.8667ZM12.6708 17.3354C13.174 16.329 14.0754 15.4316 15.1229 14.4015L14.0711 13.332C13.0696 14.3169 11.9656 15.3918 11.3292 16.6646L12.6708 17.3354ZM8.87712 14.4015C9.92459 15.4316 10.826 16.329 11.3292 17.3354L12.6708 16.6646C12.0344 15.3918 10.9304 14.3169 9.9289 13.332L8.87712 14.4015ZM5.25 8C5.25 10.8845 7.25065 12.8019 8.87712 14.4015L9.9289 13.332C8.21043 11.642 6.75 10.1556 6.75 8H5.25ZM12 1.25C8.27208 1.25 5.25 4.27208 5.25 8H6.75C6.75 5.1005 9.1005 2.75 12 2.75V1.25ZM18.75 8C18.75 4.27208 15.7279 1.25 12 1.25V2.75C14.8995 2.75 17.25 5.1005 17.25 8H18.75ZM15.1229 14.4015C16.7494 12.8019 18.75 10.8845 18.75 8H17.25C17.25 10.1556 15.7896 11.642 14.0711 13.332L15.1229 14.4015ZM12 11.75C13.7949 11.75 15.25 10.2949 15.25 8.5H13.75C13.75 9.4665 12.9665 10.25 12 10.25V11.75ZM8.75 8.5C8.75 10.2949 10.2051 11.75 12 11.75V10.25C11.0335 10.25 10.25 9.4665 10.25 8.5H8.75ZM12 5.25C10.2051 5.25 8.75 6.70507 8.75 8.5H10.25C10.25 7.5335 11.0335 6.75 12 6.75V5.25ZM15.25 8.5C15.25 6.70507 13.7949 5.25 12 5.25V6.75C12.9665 6.75 13.75 7.5335 13.75 8.5H15.25Z" fill="#1E1E1E"/>
<path d="M5 14.2852C3.14864 15.1019 2 16.24 2 17.4988C2 19.9841 6.47715 21.9988 12 21.9988C17.5228 21.9988 22 19.9841 22 17.4988C22 16.24 20.8514 15.1019 19 14.2852" stroke="#1E1E1E" stroke-width="1.5" stroke-linecap="round" stroke-linejoin="round"/>
</svg>
