<svg width="36" height="36" viewBox="0 0 36 36" fill="none" xmlns="http://www.w3.org/2000/svg">
<path d="M6.40814 31.0919L16.3029 21.1971C16.897 20.603 17.194 20.306 17.5365 20.1947C17.8377 20.0968 18.1623 20.0968 18.4635 20.1947C18.806 20.306 19.103 20.603 19.6971 21.1971L29.5259 31.0259M21 22.5L25.3029 18.1971C25.897 17.603 26.194 17.306 26.5365 17.1947C26.8377 17.0968 27.1623 17.0968 27.4635 17.1947C27.806 17.306 28.103 17.603 28.6971 18.1971L33 22.5M15 13.5C15 15.1569 13.6569 16.5 12 16.5C10.3431 16.5 9 15.1569 9 13.5C9 11.8431 10.3431 10.5 12 10.5C13.6569 10.5 15 11.8431 15 13.5ZM10.2 31.5H25.8C28.3202 31.5 29.5804 31.5 30.543 31.0095C31.3897 30.5781 32.0781 29.8897 32.5095 29.043C33 28.0804 33 26.8202 33 24.3V11.7C33 9.17976 33 7.91965 32.5095 6.95704C32.0781 6.11031 31.3897 5.4219 30.543 4.99047C29.5804 4.5 28.3202 4.5 25.8 4.5H10.2C7.67976 4.5 6.41965 4.5 5.45704 4.99047C4.61031 5.4219 3.9219 6.11031 3.49047 6.95704C3 7.91965 3 9.17976 3 11.7V24.3C3 26.8202 3 28.0804 3.49047 29.043C3.9219 29.8897 4.61031 30.5781 5.45704 31.0095C6.41965 31.5 7.67976 31.5 10.2 31.5Z" stroke="#DBDEE4" stroke-width="1.5" stroke-linecap="round" stroke-linejoin="round"/>
</svg>
