<svg width="24" height="24" viewBox="0 0 24 24" fill="none" xmlns="http://www.w3.org/2000/svg">
<path d="M21.2256 11.9992C21.2256 13.6975 19.8489 15.0742 18.1506 15.0742L16.1006 15.0742L16.1006 8.92422L18.1506 8.92422C19.8489 8.92422 21.2256 10.3009 21.2256 11.9992Z" fill="#EB8106"/>
<path d="M18.1504 20.4933V3.57219C18.1504 2.89137 17.3318 2.54539 16.8435 3.01983C13.4091 6.35691 8.80909 8.22368 4.02044 8.22368H3.58995C3.14008 8.22368 2.77539 8.58838 2.77539 9.03825V14.9946C2.77539 15.4263 3.12537 15.7763 3.5571 15.7763H3.95496C8.7856 15.7763 13.426 17.6595 16.8905 21.0258C17.3612 21.4832 18.1504 21.1496 18.1504 20.4933Z" fill="#FCCE14"/>
<path fill-rule="evenodd" clip-rule="evenodd" d="M6.87539 15.9909V7.90039C6.04806 7.99983 5.21177 8.05035 4.37064 8.05035H3.68602C3.18309 8.05035 2.77539 8.45805 2.77539 8.96097V14.9304C2.77539 15.4333 3.18309 15.841 3.68602 15.841H4.37064C5.21177 15.841 6.04806 15.8915 6.87539 15.9909Z" fill="#EB8106"/>
</svg>
