<svg xmlns="http://www.w3.org/2000/svg" width="24" height="24" viewBox="0 0 24 24" fill="none">
  <path d="M12 2C6.47715 2 2 6.47715 2 12C2 17.5228 6.47715 22 12 22C17.5228 22 22 17.5228 22 12C22 6.47715 17.5228 2 12 2Z" fill="#C3C7D0"/>
  <path fill-rule="evenodd" clip-rule="evenodd" d="M8.46967 8.46967C8.76256 8.17678 9.23744 8.17678 9.53033 8.46967L12 10.9393L14.4695 8.46979C14.7624 8.1769 15.2373 8.1769 15.5302 8.46979C15.8231 8.76269 15.8231 9.23756 15.5302 9.53045L13.0607 12L15.5302 14.4695C15.8231 14.7624 15.8231 15.2373 15.5302 15.5302C15.2373 15.8231 14.7624 15.8231 14.4695 15.5302L12 13.0607L9.53033 15.5303C9.23744 15.8232 8.76256 15.8232 8.46967 15.5303C8.17678 15.2374 8.17678 14.7626 8.46967 14.4697L10.9393 12L8.46967 9.53033C8.17678 9.23744 8.17678 8.76256 8.46967 8.46967Z" fill="white"/>
</svg>