<svg width="33" height="32" viewBox="0 0 33 32" fill="none" xmlns="http://www.w3.org/2000/svg">
<path d="M23.2081 16.0164C23.1743 13.9668 24.0597 12.3717 25.8616 11.2301C24.8456 9.75276 23.3471 8.92236 21.3653 8.73681C20.6605 8.67049 19.7596 8.837 18.6632 9.24055C17.4835 9.67798 16.8196 9.89528 16.6729 9.89528C16.3618 9.89528 15.7642 9.71184 14.8781 9.34144C13.994 8.97175 13.2405 8.78761 12.6183 8.78761C11.5699 8.80454 10.5948 9.09451 9.6946 9.65681C8.79365 10.2198 8.07331 10.9881 7.53359 11.961C6.84359 13.1696 6.5 14.6138 6.5 16.2929C6.5 17.8042 6.75328 19.3147 7.26126 20.8273C7.73607 22.2715 8.34282 23.5393 9.07938 24.6294C9.73411 25.6206 10.3091 26.3424 10.7994 26.7967C11.5043 27.5015 12.2246 27.8381 12.9626 27.8035C13.4374 27.7866 14.0589 27.6102 14.8294 27.2737C15.5497 26.9562 16.2708 26.7967 16.9918 26.7967C17.6627 26.7967 18.3584 26.9555 19.0801 27.2737C19.8823 27.6102 20.5377 27.7781 21.0457 27.7781C21.7992 27.7449 22.5033 27.4176 23.1595 26.7974C23.388 26.5949 23.6378 26.3184 23.908 25.9656C24.1782 25.6122 24.4774 25.1924 24.8054 24.7063C25.034 24.3542 25.2591 23.9761 25.4813 23.5725C25.7029 23.1696 25.9032 22.7421 26.0831 22.2877C26.1643 22.1029 26.2376 21.9145 26.304 21.7212C26.3689 21.5286 26.4345 21.3318 26.5001 21.13C25.8941 20.8619 25.3452 20.4823 24.8541 19.9955C23.7747 18.9224 23.2258 17.5953 23.2088 16.0171L23.2081 16.0164Z" fill="white"/>
<path d="M20.1114 6.69665C20.9799 5.60521 21.4145 4.42982 21.4145 3.16976V2.91859C21.4145 2.83393 21.406 2.75068 21.3898 2.66602C20.7838 2.69988 20.141 2.89319 19.4609 3.24525C18.7815 3.59871 18.2206 4.0439 17.7776 4.5808C16.8935 5.63908 16.4512 6.77214 16.4512 7.98141V8.21987C16.4512 8.29607 16.4596 8.37579 16.4759 8.46046C17.8361 8.5945 19.0482 8.00681 20.1121 6.69736L20.1114 6.69665Z" fill="white"/>
</svg>
