<svg width="33" height="32" viewBox="0 0 33 32" fill="none" xmlns="http://www.w3.org/2000/svg">
<path fill-rule="evenodd" clip-rule="evenodd" d="M26.7396 16.2421C26.7396 15.4855 26.6713 14.7589 26.5457 14.0605H16.5V18.1865H22.2408C21.9936 19.52 21.242 20.6495 20.1125 21.4061V24.0821H23.5602C25.577 22.2251 26.7406 19.4909 26.7406 16.2421H26.7396Z" fill="#4285F4"/>
<path fill-rule="evenodd" clip-rule="evenodd" d="M16.5009 26.6672C19.3809 26.6672 21.7956 25.7116 23.5601 24.0827L20.1124 21.4067C19.1568 22.0468 17.9359 22.4246 16.4999 22.4246C13.7215 22.4246 11.3701 20.5486 10.531 18.0273H6.96875V20.7907C8.72426 24.2766 12.3307 26.6672 16.5009 26.6672Z" fill="#34A853"/>
<path fill-rule="evenodd" clip-rule="evenodd" d="M10.5317 18.028C10.3187 17.3879 10.1971 16.7046 10.1971 16.0011C10.1971 15.2977 10.3187 14.6144 10.5317 13.9743V11.2109H6.96848C6.24598 12.6509 5.83398 14.2798 5.83398 16.0011C5.83398 17.7225 6.24598 19.3514 6.96848 20.7914L10.5317 18.028Z" fill="#FBBC05"/>
<path fill-rule="evenodd" clip-rule="evenodd" d="M16.5009 9.57654C18.0665 9.57654 19.4733 10.1151 20.5787 11.1713L23.6385 8.11144C21.7906 6.39111 19.3759 5.33398 16.5009 5.33398C12.3307 5.33398 8.72426 7.72457 6.96875 11.2105L10.532 13.9738C11.3711 11.4526 13.7225 9.57654 16.5009 9.57654Z" fill="#EA4335"/>
</svg>
